<svg xmlns="http://www.w3.org/2000/svg" xmlns:xlink="http://www.w3.org/1999/xlink" width="744" height="353" viewBox="0 0 744 353">
  <defs>
    <polygon id="logo-login-a" points="0 596 841.89 596 841.89 .724 0 .724"/>
  </defs>
  <g fill="none" fill-rule="evenodd" transform="translate(-57 -83)">
    <polygon fill="#343534" points="198.224 245.252 175.059 380.396 138.625 380.396 128.266 325.105 118.837 380.396 80.657 380.396 57.493 245.252 89.496 245.252 100.905 318.703 111.154 245.252 144.562 245.252 154.811 318.703 166.22 245.252"/>
    <g transform="translate(0 .276)">
      <path fill="#343534" d="M246.7637 354.3953L246.7637 271.6323C246.7637 267.2083 244.8617 264.9973 241.0597 264.9973 237.1787 264.9973 235.2397 267.2083 235.2397 271.6323L235.2397 354.3953C235.2397 358.9743 237.1787 361.2623 241.0597 361.2623 244.8617 361.2623 246.7637 358.9743 246.7637 354.3953zM202.0647 353.4633L202.0647 272.5633C202.0647 253.5513 215.2187 244.0443 241.5257 244.0443 251.6907 244.0443 260.6337 246.2563 268.3567 250.6793 276.0777 255.1033 279.9387 262.0103 279.9387 271.3993L279.9387 354.6273C279.9387 372.8653 267.1347 381.9823 241.5257 381.9823 215.2187 381.9823 202.0647 372.4773 202.0647 353.4633zM365.2622 300.9656L332.0872 300.9656 332.0872 271.6326C332.0872 267.5196 330.1852 265.4626 326.3842 265.4626 322.5802 265.4626 320.6802 267.4416 320.6802 271.3996L320.6802 380.1196 287.5052 380.1196 287.5052 244.9756 320.6802 244.9756 320.6802 249.5156C325.1032 245.8686 331.9312 244.0446 341.1672 244.0446 347.7622 244.0446 353.4272 245.8106 358.1612 249.3406 362.8942 252.8736 365.2622 257.5086 365.2622 263.2516L365.2622 300.9656z"/>
      <polygon fill="#343534" points="464.205 380.12 425.168 380.12 404.956 331.306 404.956 380.12 371.781 380.12 371.781 213.198 404.956 213.198 404.956 288.136 421.869 244.976 456.173 244.976 432.142 304.109"/>
      <path fill="#343534" d="M469.0937 325.7596L502.2687 325.7596 502.2687 354.3956C502.2687 358.9746 504.1307 361.2626 507.8557 361.2626 511.5807 361.2626 513.4437 356.8796 513.4437 348.1096 513.4437 336.7016 511.1537 329.3296 506.5747 325.9926 489.2697 316.9126 478.8307 310.5696 475.2627 306.9606 471.6927 303.3526 469.9077 297.9396 469.9077 290.7226L469.9077 272.5636C469.9077 253.5516 482.7887 244.0446 508.5547 244.0446 533.6187 244.0446 546.1527 253.1646 546.1527 271.3996L546.1527 298.0556 513.7917 298.0556 514.4907 281.8756C514.4907 270.6246 512.4337 264.9976 508.3217 264.9976 504.2067 264.9976 502.1527 268.5296 502.1527 275.5906 502.1527 282.8846 503.0637 288.3946 504.8877 292.1186 506.7097 295.8436 516.8577 302.2456 535.3267 311.3256 543.0097 316.8366 546.8507 324.1296 546.8507 333.2096L546.8507 353.4636C546.8507 372.4776 533.7557 381.9826 507.5647 381.9826 481.9157 381.9826 469.0937 372.8646 469.0937 354.6276L469.0937 325.7596zM631.4766 380.1199L598.3016 380.1199 598.3016 271.1669C598.3016 267.0549 596.4376 264.9969 592.7116 264.9969 588.9116 264.9969 587.0106 266.9759 587.0106 270.9339L587.0106 380.1199 553.8346 380.1199 553.8346 213.1979 587.0106 213.1979 587.0106 249.0499C590.9566 245.7139 597.8066 244.0449 607.5596 244.0449 614.0596 244.0449 619.6716 245.7529 624.3936 249.1659 629.1156 252.5819 631.4766 257.1219 631.4766 262.7859L631.4766 380.1199zM683.043 354.3953L683.043 271.6323C683.043 267.2083 681.141 264.9973 677.339 264.9973 673.458 264.9973 671.519 267.2083 671.519 271.6323L671.519 354.3953C671.519 358.9743 673.458 361.2623 677.339 361.2623 681.141 361.2623 683.043 358.9743 683.043 354.3953M638.344 353.4633L638.344 272.5633C638.344 253.5513 651.497 244.0443 677.805 244.0443 687.97 244.0443 696.913 246.2563 704.636 250.6793 712.356 255.1033 716.218 262.0103 716.218 271.3993L716.218 354.6273C716.218 372.8653 703.413 381.9823 677.805 381.9823 651.497 381.9823 638.344 372.4773 638.344 353.4633M767.4346 354.8602L767.4346 271.1672C767.4346 267.0542 765.5326 264.9972 761.7316 264.9972 757.8496 264.9972 755.9116 267.0542 755.9116 271.1672L755.9116 355.0932C755.9116 359.0502 757.8496 361.0302 761.7316 361.0302 765.5326 361.0302 767.4346 358.9742 767.4346 354.8602M755.9116 376.9772L755.9116 408.7552 722.7366 408.7552 722.7366 244.9762 747.8516 244.9762 750.6556 250.4472C756.1006 246.1802 762.5586 244.0452 770.0306 244.0452 777.5766 244.0452 784.5586 245.9472 790.9796 249.7482 797.3996 253.5512 800.6106 259.0222 800.6106 266.1612L800.6106 363.2412C800.6106 368.9072 798.2746 373.4472 793.6076 376.8602 788.9386 380.2742 783.2586 381.9822 776.5696 381.9822 767.3096 381.9822 760.4236 380.3122 755.9116 376.9772M222.4268 417.1062C219.7148 417.1062 217.8348 417.4172 216.7888 418.0372 215.7428 418.6572 215.2198 419.7152 215.2198 421.2102 215.2198 422.4032 215.6128 423.3482 216.3968 424.0482 217.1808 424.7482 218.2488 425.0972 219.5988 425.0972 221.4598 425.0972 222.9528 424.4372 224.0778 423.1182 225.2028 421.7972 225.7648 420.0442 225.7648 417.8542L225.7648 417.1062 222.4268 417.1062zM229.1218 415.7192L229.1218 427.3772 225.7648 427.3772 225.7648 424.2762C224.9988 425.5162 224.0438 426.4322 222.9008 427.0222 221.7578 427.6122 220.3588 427.9072 218.7048 427.9072 216.6128 427.9072 214.9488 427.3202 213.7148 426.1462 212.4808 424.9722 211.8638 423.4002 211.8638 421.4302 211.8638 419.1312 212.6328 417.3982 214.1708 416.2302 215.7098 415.0632 218.0058 414.4792 221.0578 414.4792L225.7648 414.4792 225.7648 414.1502C225.7648 412.6062 225.2578 411.4112 224.2418 410.5652 223.2258 409.7202 221.7998 409.2972 219.9638 409.2972 218.7958 409.2972 217.6588 409.4372 216.5518 409.7172 215.4448 409.9972 214.3808 410.4172 213.3598 410.9762L213.3598 407.8752C214.5878 407.4002 215.7798 407.0442 216.9348 406.8072 218.0908 406.5702 219.2158 406.4522 220.3098 406.4522 223.2658 406.4522 225.4738 407.2172 226.9328 408.7512 228.3928 410.2832 229.1218 412.6062 229.1218 415.7192L229.1218 415.7192zM261.3599 416.9236C261.3599 414.4906 260.8579 412.6066 259.8549 411.2686 258.8509 409.9306 257.4429 409.2616 255.6309 409.2616 253.8309 409.2616 252.4289 409.9306 251.4259 411.2686 250.4219 412.6066 249.9209 414.4906 249.9209 416.9236 249.9209 419.3446 250.4219 421.2236 251.4259 422.5616 252.4289 423.8996 253.8309 424.5686 255.6309 424.5686 257.4429 424.5686 258.8509 423.8996 259.8549 422.5616 260.8579 421.2236 261.3599 419.3446 261.3599 416.9236L261.3599 416.9236zM264.7169 424.8416C264.7169 428.3196 263.9439 430.9076 262.3999 432.6046 260.8549 434.3016 258.4889 435.1506 255.3029 435.1506 254.1229 435.1506 253.0099 435.0616 251.9639 434.8856 250.9179 434.7086 249.9019 434.4386 248.9169 434.0726L248.9169 430.8076C249.9019 431.3426 250.8759 431.7376 251.8369 431.9936 252.7969 432.2486 253.7759 432.3766 254.7739 432.3766 256.9749 432.3766 258.6229 431.8016 259.7179 430.6526 260.8129 429.5026 261.3599 427.7666 261.3599 425.4446L261.3599 423.7836C260.6669 424.9876 259.7779 425.8876 258.6959 426.4846 257.6129 427.0796 256.3179 427.3776 254.8099 427.3776 252.3039 427.3776 250.2859 426.4226 248.7529 424.5136 247.2199 422.6046 246.4539 420.0736 246.4539 416.9236 246.4539 413.7616 247.2199 411.2256 248.7529 409.3166 250.2859 407.4066 252.3039 406.4516 254.8099 406.4516 256.3179 406.4516 257.6129 406.7496 258.6959 407.3456 259.7779 407.9416 260.6669 408.8416 261.3599 410.0456L261.3599 406.9446 264.7169 406.9446 264.7169 424.8416zM290.5142 397.4939L293.2142 397.4939 297.6842 404.3529 295.1482 404.3529 291.8642 399.8839 288.5802 404.3529 286.0442 404.3529 290.5142 397.4939zM297.6292 415.3369C297.6052 413.4999 297.0912 412.0339 296.0882 410.9389 295.0842 409.8449 293.7552 409.2979 292.1012 409.2979 290.2282 409.2979 288.7292 409.8269 287.6042 410.8849 286.4792 411.9429 285.8312 413.4329 285.6612 415.3539L297.6292 415.3369zM300.9862 416.3219L300.9862 417.9639 285.5522 417.9639C285.6982 420.2749 286.3942 422.0349 287.6402 423.2459 288.8872 424.4559 290.6232 425.0599 292.8492 425.0599 294.1392 425.0599 295.3882 424.9029 296.5982 424.5869 297.8082 424.2699 299.0102 423.7959 300.2022 423.1629L300.2022 426.3379C298.9982 426.8479 297.7632 427.2379 296.4982 427.5059 295.2332 427.7729 293.9502 427.9069 292.6492 427.9069 289.3892 427.9069 286.8072 426.9579 284.9042 425.0599 283.0002 423.1629 282.0492 420.5979 282.0492 417.3619 282.0492 414.0169 282.9522 411.3619 284.7582 409.3979 286.5642 407.4339 289.0002 406.4519 292.0652 406.4519 294.8132 406.4519 296.9882 407.3369 298.5872 409.1059 300.1862 410.8759 300.9862 413.2809 300.9862 416.3219L300.9862 416.3219zM335.3584 415.0447L335.3584 427.3777 332.0014 427.3777 332.0014 415.1537C332.0014 413.2207 331.6244 411.7737 330.8704 410.8127 330.1164 409.8517 328.9844 409.3707 327.4774 409.3707 325.6644 409.3707 324.2354 409.9477 323.1894 411.1047 322.1434 412.2597 321.6204 413.8347 321.6204 415.8287L321.6204 427.3777 318.2454 427.3777 318.2454 406.9437 321.6204 406.9437 321.6204 410.1187C322.4234 408.8907 323.3694 407.9727 324.4574 407.3637 325.5454 406.7557 326.8024 406.4517 328.2254 406.4517 330.5724 406.4517 332.3484 407.1787 333.5524 408.6317 334.7564 410.0857 335.3584 412.2237 335.3584 415.0447M368.6362 407.7283L368.6362 410.8673C367.6872 410.3433 366.7362 409.9523 365.7812 409.6903 364.8262 409.4283 363.8622 409.2973 362.8892 409.2973 360.7122 409.2973 359.0212 409.9883 357.8172 411.3683 356.6132 412.7493 356.0112 414.6863 356.0112 417.1793 356.0112 419.6723 356.6132 421.6103 357.8172 422.9903 359.0212 424.3713 360.7122 425.0603 362.8892 425.0603 363.8622 425.0603 364.8262 424.9303 365.7812 424.6683 366.7362 424.4073 367.6872 424.0143 368.6362 423.4923L368.6362 426.5933C367.6992 427.0313 366.7292 427.3593 365.7262 427.5793 364.7222 427.7973 363.6552 427.9073 362.5242 427.9073 359.4472 427.9073 357.0022 426.9403 355.1902 425.0053 353.3782 423.0723 352.4712 420.4623 352.4712 417.1793 352.4712 413.8463 353.3862 411.2253 355.2172 409.3163 357.0482 407.4073 359.5562 406.4523 362.7432 406.4523 363.7772 406.4523 364.7862 406.5583 365.7722 406.7713 366.7572 406.9843 367.7122 407.3033 368.6362 407.7283"/>
      <mask id="logo-login-b" fill="#fff">
        <use xlink:href="#logo-login-a"/>
      </mask>
      <path fill="#343534" d="M386.351 427.378L389.708 427.378 389.708 406.944 386.351 406.944 386.351 427.378zM386.351 403.241L389.708 403.241 389.708 398.99 386.351 398.99 386.351 403.241zM417.8955 417.1062C415.1835 417.1062 413.3035 417.4172 412.2575 418.0372 411.2115 418.6572 410.6885 419.7152 410.6885 421.2102 410.6885 422.4032 411.0815 423.3482 411.8655 424.0482 412.6495 424.7482 413.7175 425.0972 415.0675 425.0972 416.9285 425.0972 418.4215 424.4372 419.5465 423.1182 420.6705 421.7972 421.2345 420.0442 421.2345 417.8542L421.2345 417.1062 417.8955 417.1062zM424.5905 415.7192L424.5905 427.3772 421.2345 427.3772 421.2345 424.2762C420.4675 425.5162 419.5125 426.4322 418.3695 427.0222 417.2265 427.6122 415.8275 427.9072 414.1735 427.9072 412.0815 427.9072 410.4175 427.3202 409.1835 426.1462 407.9495 424.9722 407.3325 423.4002 407.3325 421.4302 407.3325 419.1312 408.1015 417.3982 409.6395 416.2302 411.1785 415.0632 413.4745 414.4792 416.5265 414.4792L421.2345 414.4792 421.2345 414.1502C421.2345 412.6062 420.7255 411.4112 419.7105 410.5652 418.6945 409.7202 417.2685 409.2972 415.4325 409.2972 414.2645 409.2972 413.1275 409.4372 412.0205 409.7172 410.9135 409.9972 409.8495 410.4172 408.8285 410.9762L408.8285 407.8752C410.0565 407.4002 411.2485 407.0442 412.4035 406.8072 413.5595 406.5702 414.6845 406.4522 415.7785 406.4522 418.7345 406.4522 420.9425 407.2172 422.4015 408.7512 423.8615 410.2832 424.5905 412.6062 424.5905 415.7192L424.5905 415.7192zM472.7012 412.7273C471.5942 413.7123 470.7822 414.6953 470.2652 415.6733 469.7482 416.6533 469.4902 417.6783 469.4902 418.7483 469.4902 420.5243 470.1352 422.0013 471.4242 423.1813 472.7132 424.3613 474.3312 424.9513 476.2762 424.9513 477.4312 424.9513 478.5142 424.7593 479.5242 424.3763 480.5332 423.9933 481.4822 423.4133 482.3702 422.6343L472.7012 412.7273zM475.2732 410.6843L484.5412 420.1713C485.2592 419.0883 485.8182 417.9303 486.2202 416.6963 486.6212 415.4613 486.8582 414.1503 486.9312 412.7643L490.3252 412.7643C490.1792 414.3703 489.7892 415.9563 489.1572 417.5263 488.5242 419.0943 487.6422 420.6453 486.5122 422.1783L491.6012 427.3773 487.0042 427.3773 484.3952 424.6963C483.1302 425.7783 481.8052 426.5833 480.4182 427.1133 479.0312 427.6423 477.5422 427.9073 475.9482 427.9073 473.0162 427.9073 470.6212 427.0713 468.7602 425.3983 466.8992 423.7263 465.9692 421.5823 465.9692 418.9673 465.9692 417.4103 466.3762 415.9483 467.1912 414.5793 468.0062 413.2103 469.2282 411.9243 470.8582 410.7203 470.2742 409.9553 469.8302 409.1913 469.5262 408.4313 469.2222 407.6703 469.0702 406.9253 469.0702 406.1963 469.0702 404.2253 469.7452 402.6413 471.0962 401.4433 472.4452 400.2463 474.2392 399.6463 476.4772 399.6463 477.4872 399.6463 478.4932 399.7553 479.4972 399.9743 480.5002 400.1943 481.5182 400.5223 482.5532 400.9593L482.5532 404.2803C481.4942 403.7083 480.4852 403.2743 479.5242 402.9763 478.5632 402.6783 477.6692 402.5293 476.8432 402.5293 475.5652 402.5293 474.5282 402.8673 473.7312 403.5413 472.9342 404.2163 472.5372 405.0893 472.5372 406.1603 472.5372 406.7803 472.7162 407.4033 473.0752 408.0303 473.4332 408.6563 474.1662 409.5403 475.2732 410.6843L475.2732 410.6843zM546.0254 415.3367C546.0004 413.4997 545.4864 412.0337 544.4834 410.9397 543.4794 409.8447 542.1514 409.2977 540.4974 409.2977 538.6244 409.2977 537.1254 409.8267 536.0004 410.8847 534.8754 411.9427 534.2264 413.4337 534.0564 415.3547L546.0254 415.3367zM549.3814 416.3217L549.3814 417.9637 533.9474 417.9637C534.0934 420.2747 534.7894 422.0347 536.0364 423.2457 537.2834 424.4557 539.0194 425.0607 541.2454 425.0607 542.5344 425.0607 543.7844 424.9027 544.9944 424.5867 546.2044 424.2707 547.4054 423.7957 548.5974 423.1627L548.5974 426.3377C547.3934 426.8487 546.1594 427.2377 544.8934 427.5057 543.6294 427.7737 542.3454 427.9067 541.0444 427.9067 537.7844 427.9067 535.2034 426.9577 533.2994 425.0607 531.3954 423.1627 530.4444 420.5977 530.4444 417.3617 530.4444 414.0177 531.3474 411.3617 533.1534 409.3987 534.9604 407.4347 537.3954 406.4517 540.4614 406.4517 543.2094 406.4517 545.3834 407.3367 546.9824 409.1067 548.5824 410.8757 549.3814 413.2807 549.3814 416.3217L549.3814 416.3217zM579.7949 407.5467L579.7949 410.7207C578.8459 410.2347 577.8599 409.8697 576.8389 409.6257 575.8169 409.3827 574.7589 409.2617 573.6639 409.2617 571.9979 409.2617 570.7479 409.5167 569.9149 410.0267 569.0819 410.5377 568.6659 411.3047 568.6659 412.3257 568.6659 413.1047 568.9639 413.7157 569.5599 414.1597 570.1549 414.6047 571.3539 415.0257 573.1529 415.4277L574.3029 415.6837C576.6869 416.1937 578.3809 416.9147 579.3839 417.8457 580.3879 418.7757 580.8899 420.0737 580.8899 421.7397 580.8899 423.6377 580.1379 425.1407 578.6359 426.2467 577.1339 427.3537 575.0689 427.9067 572.4419 427.9067 571.3479 427.9067 570.2069 427.8007 569.0219 427.5877 567.8359 427.3747 566.5859 427.0557 565.2729 426.6297L565.2729 423.1627C566.5129 423.8087 567.7349 424.2917 568.9399 424.6137 570.1439 424.9367 571.3349 425.0977 572.5159 425.0977 574.0959 425.0977 575.3129 424.8267 576.1639 424.2847 577.0159 423.7437 577.4409 422.9817 577.4409 421.9957 577.4409 421.0837 577.1339 420.3847 576.5199 419.8977 575.9049 419.4107 574.5589 418.9427 572.4789 418.4927L571.3109 418.2197C569.2319 417.7807 567.7289 417.1097 566.8049 416.2027 565.8799 415.2977 565.4179 414.0537 565.4179 412.4727 565.4179 410.5507 566.0999 409.0677 567.4619 408.0207 568.8229 406.9747 570.7579 406.4517 573.2629 406.4517 574.5039 406.4517 575.6719 406.5427 576.7659 406.7257 577.8599 406.9077 578.8699 407.1817 579.7949 407.5467M612.8164 407.7283L612.8164 410.8673C611.8684 410.3433 610.9164 409.9523 609.9624 409.6903 609.0064 409.4283 608.0434 409.2973 607.0704 409.2973 604.8924 409.2973 603.2024 409.9883 601.9984 411.3683 600.7944 412.7493 600.1914 414.6863 600.1914 417.1793 600.1914 419.6723 600.7944 421.6103 601.9984 422.9903 603.2024 424.3713 604.8924 425.0603 607.0704 425.0603 608.0434 425.0603 609.0064 424.9303 609.9624 424.6683 610.9164 424.4073 611.8684 424.0143 612.8164 423.4923L612.8164 426.5933C611.8794 427.0313 610.9104 427.3593 609.9074 427.5793 608.9034 427.7973 607.8364 427.9073 606.7054 427.9073 603.6284 427.9073 601.1824 426.9403 599.3714 425.0053 597.5584 423.0723 596.6524 420.4623 596.6524 417.1793 596.6524 413.8463 597.5674 411.2253 599.3984 409.3163 601.2284 407.4073 603.7374 406.4523 606.9234 406.4523 607.9584 406.4523 608.9674 406.5583 609.9524 406.7713 610.9374 406.9843 611.8924 407.3033 612.8164 407.7283M638.4502 409.2977C636.6492 409.2977 635.2262 409.9997 634.1802 411.4047 633.1352 412.8097 632.6112 414.7347 632.6112 417.1797 632.6112 419.6237 633.1322 421.5487 634.1722 422.9537 635.2122 424.3587 636.6382 425.0607 638.4502 425.0607 640.2382 425.0607 641.6542 424.3557 642.7012 422.9437 643.7472 421.5337 644.2692 419.6117 644.2692 417.1797 644.2692 414.7587 643.7472 412.8407 642.7012 411.4227 641.6542 410.0067 640.2382 409.2977 638.4502 409.2977M638.4502 406.4517C641.3692 406.4517 643.6612 407.4007 645.3282 409.2977 646.9942 411.1947 647.8272 413.8217 647.8272 417.1797 647.8272 420.5247 646.9942 423.1487 645.3282 425.0517 643.6612 426.9547 641.3692 427.9067 638.4502 427.9067 635.5182 427.9067 633.2222 426.9547 631.5622 425.0517 629.9022 423.1487 629.0722 420.5247 629.0722 417.1797 629.0722 413.8217 629.9022 411.1947 631.5622 409.2977 633.2222 407.4007 635.5182 406.4517 638.4502 406.4517" mask="url(#logo-login-b)"/>
      <polygon fill="#343534" points="665.27 427.378 668.626 427.378 668.626 398.99 665.27 398.99" mask="url(#logo-login-b)"/>
      <path fill="#343534" d="M696.8135,417.1062 C694.1005,417.1062 692.2215,417.4172 691.1755,418.0372 C690.1295,418.6572 689.6065,419.7152 689.6065,421.2102 C689.6065,422.4032 689.9995,423.3482 690.7835,424.0482 C691.5685,424.7482 692.6355,425.0972 693.9855,425.0972 C695.8465,425.0972 697.3385,424.4372 698.4645,423.1182 C699.5885,421.7972 700.1525,420.0442 700.1525,417.8542 L700.1525,417.1062 L696.8135,417.1062 Z M703.5085,415.7192 L703.5085,427.3772 L700.1525,427.3772 L700.1525,424.2762 C699.3855,425.5162 698.4305,426.4322 697.2885,427.0222 C696.1445,427.6122 694.7455,427.9072 693.0915,427.9072 C690.9995,427.9072 689.3355,427.3202 688.1015,426.1462 C686.8675,424.9722 686.2505,423.4002 686.2505,421.4302 C686.2505,419.1312 687.0185,417.3982 688.5575,416.2302 C690.0965,415.0632 692.3915,414.4792 695.4455,414.4792 L700.1525,414.4792 L700.1525,414.1502 C700.1525,412.6062 699.6435,411.4112 698.6285,410.5652 C697.6135,409.7202 696.1865,409.2972 694.3505,409.2972 C693.1825,409.2972 692.0445,409.4372 690.9385,409.7172 C689.8325,409.9972 688.7675,410.4172 687.7465,410.9762 L687.7465,407.8752 C688.9745,407.4002 690.1665,407.0442 691.3225,406.8072 C692.4775,406.5702 693.6025,406.4522 694.6975,406.4522 C697.6525,406.4522 699.8605,407.2172 701.3195,408.7512 C702.7795,410.2832 703.5085,412.6062 703.5085,415.7192 L703.5085,415.7192 Z" mask="url(#logo-login-b)"/>
      <path stroke="#DF542F" stroke-width="9.698" d="M459.1855,155.3943 C464.1165,163.3593 463.2875,203.7923 464.3685,226.4313 C508.5605,201.6343 548.467446,135.691534 588.020446,103.396534 C547.783446,111.318534 487.5175,130.0673 459.1855,155.3943 C448.3135,133.6583 427.2205,112.1833 402.9865,106.4933 C441.3075,93.1053 569.9165,78.1373 604.1485,95.7613 C590.9775,124.6483 533.3365,191.4543 512.4945,212.1463 C509.399833,207.156967 508.327167,199.361967 509.2765,188.7613" mask="url(#logo-login-b)"/>
    </g>
  </g>
</svg>
